<?xml version="1.0" standalone="no"?>
<!DOCTYPE svg PUBLIC "-//W3C//DTD SVG 20010904//EN"
 "http://www.w3.org/TR/2001/REC-SVG-20010904/DTD/svg10.dtd">
<svg version="1.0" xmlns="http://www.w3.org/2000/svg"
 width="600.000000pt" height="600.000000pt" viewBox="0 0 600.000000 600.000000"
 preserveAspectRatio="xMidYMid meet">
<g transform="translate(0.000000,600.000000) scale(0.100000,-0.100000)"
fill="#000000" stroke="none">
<path d="M2550 5592 c-52 -6 -111 -17 -130 -23 -42 -13 -192 -87 -200 -98 -3
-4 -39 -24 -80 -44 -153 -75 -176 -93 -355 -291 -119 -132 -121 -135 -260
-446 -49 -109 -82 -199 -94 -256 -5 -27 -16 -74 -24 -104 -33 -124 -47 -275
-49 -515 -1 -233 0 -243 27 -350 25 -99 100 -267 127 -286 5 -3 -4 -19 -18
-34 -70 -75 -76 -158 -25 -320 55 -177 149 -313 247 -360 31 -15 47 -16 92 -8
46 9 54 8 58 -6 3 -9 14 -38 25 -66 12 -27 28 -70 36 -95 9 -25 22 -58 29 -75
15 -37 22 -62 28 -98 3 -15 17 -49 31 -75 15 -26 32 -64 39 -84 12 -39 101
-139 144 -162 49 -26 122 -103 128 -135 7 -35 14 -31 -101 -57 -44 -9 -87 -21
-95 -25 -8 -4 -41 -17 -72 -29 -74 -28 -92 -49 -86 -97 6 -39 99 -208 127
-230 19 -15 71 -17 71 -3 0 6 4 10 8 10 8 0 8 -57 -2 -165 -9 -105 -8 -237 2
-247 14 -14 22 45 25 194 1 65 6 118 11 118 4 0 6 24 2 53 -3 28 -6 56 -6 61
0 4 -11 6 -23 2 -32 -8 -55 19 -111 129 l-46 89 22 23 c23 25 121 65 218 90
60 15 64 15 77 -3 7 -10 13 -28 13 -41 0 -13 10 -57 22 -98 12 -41 19 -77 15
-81 -3 -4 -32 13 -63 37 -31 24 -67 52 -80 62 -13 10 -39 21 -59 24 -28 4 -35
2 -35 -10 0 -9 11 -24 24 -32 13 -9 38 -44 56 -78 18 -34 39 -75 47 -90 22
-42 25 -150 5 -190 -10 -19 -18 -63 -19 -107 -2 -41 -6 -121 -9 -178 -6 -99
-8 -103 -28 -98 -11 3 -27 6 -35 6 -19 0 -95 81 -115 124 -10 22 -16 58 -16
93 1 32 2 104 3 160 1 55 -1 99 -5 96 -5 -2 -8 5 -8 16 0 10 6 22 13 24 7 3 5
6 -5 6 -10 1 -18 6 -18 11 0 6 -9 10 -19 10 -24 0 -32 -60 -20 -135 6 -33 5
-73 -4 -120 l-13 -70 -125 -36 c-122 -36 -197 -52 -414 -90 -135 -23 -298 -72
-525 -157 -30 -11 -86 -30 -125 -42 -191 -60 -222 -76 -384 -190 -36 -25 -93
-61 -127 -80 -98 -55 -205 -129 -251 -173 -40 -38 -43 -45 -43 -92 l1 -50 24
30 c27 33 34 23 9 -13 -11 -17 -12 -22 -2 -22 26 0 40 18 45 61 3 24 13 52 21
62 20 22 167 120 238 158 48 26 92 56 174 117 49 37 171 102 213 113 23 6 69
19 101 30 33 10 61 17 64 15 9 -10 3 -79 -9 -109 -20 -50 -50 -62 -68 -29 -8
14 -4 28 15 56 14 21 23 41 19 44 -9 9 -78 -70 -107 -120 -12 -21 -25 -38 -29
-38 -13 0 -27 26 -34 63 -4 20 -12 37 -17 37 -5 0 -7 -9 -3 -19 7 -24 -32 -88
-58 -95 -16 -4 -17 0 -12 26 5 22 4 29 -6 26 -23 -8 -53 -80 -56 -137 -12
-180 -4 -220 45 -224 14 -1 22 -8 22 -19 0 -10 7 -18 15 -18 20 0 31 48 16 71
-18 29 -13 47 16 61 50 24 47 97 -6 156 -38 41 -62 42 -27 2 35 -43 52 -100
36 -129 -16 -30 -34 -21 -38 19 -4 33 -22 60 -41 60 -7 0 -9 14 -7 35 5 43 13
55 34 55 24 1 62 35 62 55 0 13 9 7 33 -19 18 -20 36 -36 39 -36 3 0 17 18 32
40 23 36 28 39 46 28 11 -7 20 -17 20 -22 0 -5 7 -17 16 -27 24 -26 20 -82
-10 -139 -14 -27 -26 -56 -26 -65 0 -16 25 -21 34 -6 3 5 15 7 26 4 25 -7 44
-64 37 -110 -6 -35 -6 -35 14 -17 16 15 19 25 13 58 -3 22 -11 48 -17 57 -8
14 -5 24 18 51 l29 33 27 -27 c20 -20 32 -25 50 -20 22 6 22 7 4 10 -37 7 -51
30 -54 86 -2 55 20 108 60 148 17 17 19 17 33 -4 21 -30 19 -76 -5 -113 -10
-16 -22 -36 -25 -42 -9 -19 3 -43 19 -37 13 4 25 -27 31 -78 1 -3 4 -10 9 -14
10 -11 9 -26 -2 -19 -16 9 -29 -27 -24 -67 3 -21 7 -38 10 -38 8 0 40 35 51
56 13 24 -4 108 -32 162 -17 33 -17 33 8 53 29 23 34 59 12 100 -7 14 -21 52
-31 83 -10 32 -27 63 -37 69 -43 27 -11 87 65 121 43 20 200 66 223 66 4 0
-11 -19 -32 -43 -22 -23 -51 -58 -66 -77 l-27 -35 -1 53 c0 50 -12 68 -24 37
-12 -31 3 -149 23 -175 16 -23 17 -29 5 -51 -7 -13 -13 -34 -14 -46 0 -13 -4
-23 -9 -23 -9 0 -8 -9 10 -82 12 -46 28 -51 21 -6 -15 90 9 173 52 181 17 2
14 6 -16 19 -33 15 -38 22 -38 49 0 19 7 37 18 45 14 11 19 9 30 -9 12 -21 13
-20 8 10 -4 24 2 40 23 70 15 21 35 44 44 52 9 7 17 19 17 26 0 15 27 28 41
19 13 -7 11 -59 -3 -107 -8 -26 -22 -46 -42 -58 -25 -15 -27 -19 -11 -19 11 0
35 17 53 37 32 37 33 40 28 101 -5 59 -4 62 17 62 22 0 23 -3 21 -68 -2 -38 3
-92 11 -121 8 -33 10 -60 5 -70 -16 -30 -27 -76 -29 -128 -4 -76 15 -65 22 12
7 76 25 118 46 106 11 -7 12 -17 3 -52 -14 -54 -9 -60 10 -17 25 54 31 88 14
82 -31 -12 -47 39 -49 152 l-2 108 50 11 c28 7 66 14 85 17 36 6 36 6 32 -28
-4 -33 -22 -49 -22 -19 0 8 -5 15 -11 15 -7 0 -8 -7 -4 -17 24 -60 10 -175
-23 -188 -18 -7 -16 -8 -30 32 -9 28 -8 39 13 75 27 47 30 58 15 58 -5 0 -10
-5 -10 -11 0 -7 -13 -25 -30 -40 -16 -16 -27 -29 -25 -29 3 0 1 -9 -5 -20 -8
-15 -8 -20 1 -18 6 2 15 -8 20 -21 7 -19 6 -22 -6 -17 -17 6 -21 -9 -5 -19 16
-10 56 -95 64 -134 3 -20 1 -39 -5 -47 -9 -11 -8 -14 4 -14 27 0 36 23 26 72
-4 26 -15 61 -24 77 -19 38 -19 38 5 44 11 3 28 22 37 44 15 33 18 35 21 15 2
-12 14 -29 27 -38 22 -14 22 -16 8 -67 -19 -64 -33 -82 -33 -42 0 23 -3 27
-10 15 -12 -19 -12 -71 0 -90 8 -13 10 -12 10 3 0 9 5 17 10 17 6 0 10 6 10
13 0 7 5 18 12 25 16 16 37 -14 38 -55 0 -18 3 -33 6 -33 19 0 43 24 58 58 17
37 17 42 1 88 -9 27 -21 54 -26 60 -7 9 -5 14 8 18 10 3 27 20 37 37 26 43 17
128 -18 178 l-26 35 48 14 c26 7 61 19 77 26 84 35 77 36 101 -9 40 -76 39
-79 -14 -132 -48 -48 -80 -93 -66 -93 4 0 15 10 26 22 11 13 38 42 60 66 l41
43 16 -28 c24 -40 17 -163 -9 -163 -6 0 -12 11 -16 25 -3 14 -10 25 -15 25 -6
0 -5 -8 1 -19 5 -11 10 -29 10 -40 0 -12 7 -21 15 -21 23 0 56 60 52 92 -4 30
7 38 17 13 3 -8 17 -15 31 -15 24 0 30 9 26 38 -3 19 37 14 58 -7 11 -11 21
-17 24 -15 3 3 31 -12 64 -33 54 -35 69 -40 193 -56 74 -10 166 -23 203 -28
37 -5 118 -9 180 -9 62 0 139 -5 172 -12 57 -12 60 -15 63 -45 l3 -32 -42 4
c-24 3 -66 12 -95 20 -29 8 -76 18 -106 21 -29 3 -78 12 -109 20 -36 9 -99 13
-180 12 -68 -2 -168 1 -223 6 -93 9 -101 11 -147 48 -56 44 -87 51 -68 16 6
-13 23 -35 36 -50 25 -27 24 -48 -3 -48 -8 0 -14 -8 -14 -19 0 -10 -7 -25 -17
-32 -15 -13 -16 -10 -10 29 4 23 3 42 -2 42 -14 0 -22 -45 -16 -97 4 -38 0
-59 -19 -98 -21 -43 -25 -47 -31 -30 -5 11 -23 36 -43 57 -21 22 -31 41 -27
49 6 8 12 4 22 -15 17 -32 38 -35 28 -3 -4 12 -10 41 -12 64 -4 31 -10 42 -26
47 -29 7 -32 2 -17 -35 12 -27 11 -33 -1 -43 -8 -6 -25 -27 -37 -47 -21 -35
-21 -37 -6 -120 16 -85 49 -169 65 -169 13 0 11 14 -6 46 -21 40 -19 59 8 72
21 11 21 11 -4 6 -24 -5 -27 -2 -37 43 -6 26 -13 57 -16 68 -3 11 1 29 10 40
15 20 16 20 38 -8 30 -37 49 -97 36 -112 -12 -15 -3 -25 15 -19 10 4 12 -2 9
-25 -3 -18 -1 -31 5 -31 6 0 11 15 11 33 0 30 25 130 37 150 2 4 15 -3 28 -15
13 -13 20 -27 16 -33 -5 -5 -11 -22 -13 -38 -4 -21 -2 -27 11 -25 8 2 16 -1
16 -7 1 -5 4 -20 9 -33 5 -15 2 -27 -8 -38 -9 -8 -16 -27 -15 -42 0 -26 1 -26
13 6 11 32 12 33 27 15 9 -10 19 -25 22 -33 3 -9 6 -3 6 12 1 18 10 33 27 45
24 15 26 21 21 70 -3 35 -14 68 -30 93 -14 21 -33 63 -42 95 -17 56 -17 57 6
81 29 31 62 28 65 -6 1 -14 -9 -45 -22 -69 -27 -50 -24 -66 5 -30 25 30 45 85
37 104 -3 9 1 15 10 15 12 0 15 -10 14 -42 -5 -94 -1 -116 31 -152 17 -20 28
-39 25 -44 -10 -17 -25 -136 -20 -159 9 -35 41 -26 64 17 34 65 46 95 42 112
-4 20 -22 25 -22 6 0 -18 -51 -121 -57 -115 -7 7 6 120 15 134 4 5 28 13 55
16 39 6 47 4 47 -9 0 -10 6 -14 14 -11 11 5 17 -6 22 -40 6 -41 4 -49 -16 -65
-22 -18 -22 -18 -1 -18 40 0 55 74 26 131 -15 29 -15 31 17 75 27 38 33 42 39
27 4 -10 21 -30 40 -45 29 -25 31 -30 21 -50 -6 -13 -17 -36 -24 -53 l-12 -30
-6 45 c-6 43 -7 44 -14 17 -5 -16 -5 -49 -1 -75 10 -65 7 -105 -10 -132 -3 -5
-2 -10 3 -10 5 0 13 15 18 32 10 34 41 50 54 28 5 -8 9 -7 13 4 5 12 0 16 -19
16 -34 0 -39 21 -14 66 30 54 40 63 40 34 0 -31 22 -90 33 -90 10 0 0 73 -17
115 -10 24 -10 35 1 55 7 14 13 19 13 13 0 -7 6 -13 14 -13 19 0 26 -22 26
-86 0 -34 4 -53 10 -49 15 9 12 65 -7 117 -16 45 -16 48 2 68 10 11 13 20 7
20 -7 0 -12 -4 -12 -10 0 -28 -18 -4 -33 44 -21 66 -15 88 22 80 39 -10 44
-18 32 -60 -11 -40 -9 -50 8 -39 6 3 11 19 11 35 0 16 4 32 10 35 6 4 10 -13
10 -44 0 -62 25 -118 56 -125 22 -6 23 -7 9 -47 -16 -46 -19 -79 -7 -79 4 0
13 14 19 31 13 35 33 31 33 -7 0 -15 6 -24 15 -24 17 0 19 12 5 40 -6 11 -14
28 -19 39 -7 13 -4 27 11 51 10 18 15 36 11 39 -17 11 -55 101 -49 116 7 20
41 19 104 -5 29 -11 64 -20 78 -20 26 0 26 -1 19 -56 -7 -58 -9 -69 -25 -169
-5 -33 -11 -81 -14 -107 l-5 -48 38 0 c36 0 39 2 44 32 3 18 5 59 6 91 0 65 9
106 20 89 3 -6 6 34 5 89 -1 109 -5 102 71 114 79 12 73 25 -12 25 -45 0 -85
5 -88 10 -4 6 35 10 109 10 71 0 143 6 188 17 40 9 87 16 103 16 17 0 33 4 36
8 3 5 16 12 30 14 83 17 89 17 89 5 0 -6 5 -10 11 -8 6 2 9 6 7 9 -8 14 27 38
65 44 23 4 53 15 67 25 45 31 65 30 77 -1 13 -33 9 -35 -69 -45 -29 -4 -85
-20 -124 -35 -40 -16 -116 -35 -170 -43 -55 -8 -110 -18 -124 -22 -14 -3 -42
-9 -63 -11 -22 -3 -36 -10 -34 -17 2 -6 -4 -22 -14 -35 -20 -25 -26 -71 -9
-71 6 0 10 7 10 15 0 8 7 15 15 15 8 0 15 -7 15 -15 0 -8 5 -15 10 -15 13 0
13 16 1 39 -17 31 -3 60 27 58 37 -3 39 -34 8 -77 -14 -19 -37 -57 -51 -85
-17 -34 -23 -41 -20 -22 10 50 -13 28 -24 -23 -17 -78 -14 -118 8 -130 31 -16
48 -12 23 6 -26 18 -29 56 -6 75 13 10 17 10 26 -2 7 -10 8 -3 3 23 -3 21 -1
39 4 43 6 3 13 -11 17 -35 4 -25 12 -40 21 -40 17 0 8 63 -13 95 -20 28 -17
49 8 60 12 6 30 21 40 36 15 20 17 30 9 52 -10 25 -8 27 27 37 42 11 221 34
226 29 2 -2 7 -24 10 -48 4 -29 15 -55 32 -72 21 -22 24 -31 15 -47 -18 -34
-12 -139 11 -167 11 -14 24 -25 30 -25 7 0 6 5 -1 14 -9 11 -9 20 -2 35 6 11
11 29 11 41 0 12 5 18 10 15 14 -9 50 -81 44 -88 -3 -2 6 -7 20 -11 19 -5 27
-15 33 -48 5 -23 14 -43 21 -46 17 -5 5 66 -15 89 -12 14 -11 18 2 29 19 16
20 82 1 118 -8 15 -26 38 -40 51 -26 24 -26 25 -6 43 34 32 52 77 45 114 -9
49 -21 49 -21 1 1 -45 -43 -125 -52 -96 -3 8 -14 24 -24 36 -17 18 -19 27 -10
52 11 32 1 49 -16 28 -18 -22 -34 -109 -22 -121 7 -7 10 -3 10 11 0 35 18 36
35 2 15 -29 15 -32 -2 -45 -17 -13 -17 -13 4 -14 26 0 79 -61 86 -98 5 -28 -7
-72 -20 -72 -5 0 -17 16 -27 35 -11 19 -25 35 -33 35 -7 0 -16 0 -20 1 -4 0
-12 -17 -19 -38 l-11 -38 -7 66 c-5 37 -5 76 -2 87 4 13 -1 40 -14 67 -27 59
-24 127 4 131 39 6 184 46 283 80 55 19 103 34 106 34 3 0 8 -24 11 -53 9 -73
37 -117 73 -116 27 0 27 1 6 9 -32 13 -34 51 -5 83 21 24 24 20 39 -55 3 -17
10 -25 19 -21 8 3 14 -1 14 -9 0 -8 7 -28 15 -44 24 -50 -3 -98 -34 -60 -8 10
-6 19 10 40 11 14 17 26 12 26 -15 0 -28 -15 -60 -64 -31 -48 -32 -49 -38 -24
-4 14 -6 34 -5 44 1 11 1 30 1 44 l-2 25 -11 -25 c-9 -23 -6 -126 6 -177 2
-13 1 -25 -4 -28 -9 -5 -4 -110 6 -126 14 -23 19 -2 16 71 -4 78 -3 80 20 81
16 1 18 3 6 6 -23 6 -22 42 1 71 27 32 37 28 61 -25 15 -35 23 -44 30 -34 6
10 10 0 15 -33 6 -38 4 -51 -11 -68 -19 -20 -19 -20 1 -17 11 3 26 16 33 31
15 32 -1 80 -37 112 -23 21 -28 46 -10 46 18 0 38 32 38 60 1 35 -34 106 -58
121 -19 13 -19 13 6 43 20 24 23 36 18 65 -13 75 -26 108 -47 127 -21 19 -21
19 -14 -6 37 -120 37 -187 0 -173 -13 5 -13 8 2 24 29 32 10 30 -24 -2 -18
-16 -32 -37 -32 -45 0 -7 -7 -14 -15 -14 -10 0 -15 10 -15 28 0 15 -3 37 -6
50 -5 18 -2 24 15 29 12 3 20 11 18 17 -3 6 -11 9 -18 8 -8 -2 -45 -10 -84
-19 -38 -8 -88 -20 -110 -28 -41 -13 -60 -11 -49 6 7 12 3 287 -5 309 -1 3 -4
45 -6 94 -2 49 -9 92 -14 95 -5 3 -7 18 -6 34 2 15 -1 27 -6 27 -6 0 -8 4 -5
9 3 4 -4 19 -15 32 l-21 24 8 -30 c4 -17 9 -34 13 -40 6 -11 7 -16 15 -80 6
-39 8 -427 3 -432 -2 -1 -22 -5 -45 -9 l-42 -7 0 112 c0 62 -5 121 -10 132 -8
13 -7 19 0 19 8 0 9 22 4 73 -7 81 -9 86 -26 69 -7 -7 -8 -12 -2 -12 5 0 8
-77 6 -197 -3 -210 -6 -223 -54 -223 -16 0 -18 10 -18 93 -1 145 -7 254 -14
266 -18 29 -23 -12 -20 -188 l3 -190 -50 -10 c-62 -14 -79 -14 -59 -1 11 7 14
30 13 106 -1 53 -5 99 -8 102 -3 3 -11 0 -18 -8 -10 -10 -9 -11 3 -5 12 7 13
6 3 -6 -12 -15 -9 -101 4 -122 3 -6 1 -7 -5 -3 -8 5 -10 -2 -6 -22 7 -34 -16
-62 -51 -62 -13 0 -35 -4 -49 -10 -26 -9 -26 -9 -26 46 0 39 -4 54 -12 52 -8
-3 -11 -21 -9 -50 2 -38 -1 -49 -17 -57 -20 -11 -108 -18 -116 -10 -3 2 -7 33
-10 69 -2 36 -5 67 -5 70 -1 2 -6 -1 -13 -8 -8 -8 -8 -15 2 -27 7 -8 8 -15 3
-15 -6 0 -8 -11 -5 -25 2 -13 1 -36 -2 -50 -6 -23 -10 -24 -48 -20 -23 3 -45
8 -48 11 -3 3 -6 119 -7 257 -3 252 -3 252 16 217 10 -19 22 -50 26 -68 8 -40
56 -70 74 -48 6 7 29 16 51 20 21 3 42 11 45 16 3 5 -7 27 -23 47 -40 53 -102
193 -102 231 0 20 -6 35 -15 39 -23 8 -29 -3 -27 -45 l2 -37 -20 39 c-11 22
-17 42 -14 45 3 3 74 9 157 12 229 10 370 58 496 168 13 12 28 22 33 22 4 1
13 2 19 3 23 2 39 42 39 98 0 51 2 58 20 58 11 0 25 -9 32 -20 7 -11 21 -20
31 -20 24 0 56 -19 95 -57 38 -38 39 -42 11 -77 -17 -21 -24 -25 -30 -14 -6 9
-9 7 -9 -8 0 -12 -7 -24 -15 -28 -8 -3 -15 -11 -15 -18 0 -7 -9 -24 -20 -38
-19 -24 -20 -24 -26 -5 -3 11 -22 34 -42 50 l-36 30 19 -32 c11 -18 23 -33 26
-33 4 0 11 -25 14 -55 4 -30 10 -55 14 -55 3 0 12 -14 19 -30 19 -41 32 -38
32 8 0 37 26 82 87 152 12 14 31 36 42 49 32 37 29 100 -6 132 -70 62 -180
120 -246 128 l-48 6 58 57 c32 31 86 80 120 108 68 55 123 131 161 225 13 33
27 65 31 70 8 10 30 63 62 149 10 26 21 69 25 95 4 25 9 55 11 66 3 11 7 41
10 68 4 36 10 47 23 47 24 0 136 53 185 88 46 32 114 116 150 184 22 41 25 60
25 145 0 82 -4 106 -24 149 -13 28 -36 60 -52 72 -19 14 -25 24 -18 29 13 9
59 123 68 168 3 17 9 48 12 70 3 22 12 51 19 65 17 33 43 140 56 231 28 192
19 443 -21 594 -33 124 -40 143 -90 257 -30 67 -50 127 -50 148 0 40 -23 119
-48 165 -22 42 -113 154 -153 190 -218 194 -288 249 -363 284 -66 31 -217 84
-281 100 -22 5 -71 19 -110 31 -80 24 -267 30 -345 11 -57 -13 -179 -33 -206
-33 -12 0 -61 19 -109 43 -139 68 -306 88 -505 61z m363 -63 c40 -12 102 -33
139 -47 l68 -26 -38 -13 c-20 -8 -53 -19 -72 -24 -57 -17 -155 -76 -202 -121
-78 -77 -148 -254 -120 -303 8 -15 11 -12 22 21 17 54 58 142 84 179 40 57
123 130 172 151 256 112 539 162 678 120 25 -8 48 -14 49 -14 9 0 142 -41 237
-73 181 -62 195 -71 398 -249 126 -111 245 -234 276 -287 20 -35 55 -148 46
-151 -13 -5 -13 -38 1 -64 18 -34 70 -181 75 -213 3 -16 10 -48 16 -70 24 -91
45 -294 42 -400 -5 -166 -52 -412 -89 -469 -14 -21 -16 -31 -7 -34 19 -6 15
-36 -19 -135 -30 -92 -40 -107 -71 -107 -16 0 -16 3 -1 38 31 73 110 453 115
557 5 81 -16 68 -30 -20 -17 -109 -50 -270 -79 -387 -13 -54 -23 -101 -22
-105 6 -29 -17 -76 -42 -89 -28 -14 -29 -14 -29 9 0 13 4 48 9 78 5 30 12 115
16 189 3 74 9 138 11 142 3 4 16 8 30 8 30 0 32 25 4 42 -13 8 -20 24 -20 43
l-1 30 -19 -24 c-20 -23 -21 -23 -60 -7 -22 9 -51 16 -64 16 -35 0 -50 25 -51
86 -2 50 -17 86 -31 72 -8 -9 -16 -118 -10 -143 4 -14 21 -28 48 -39 24 -10
63 -28 88 -39 25 -12 46 -22 47 -22 1 0 -5 -43 -12 -95 l-14 -95 -53 -48 c-42
-38 -47 -45 -22 -33 17 8 36 22 43 30 18 21 35 20 26 -1 -3 -10 -10 -55 -15
-101 -8 -76 -15 -111 -56 -287 -7 -33 -17 -92 -20 -132 -4 -40 -11 -70 -15
-67 -5 3 -9 -21 -9 -53 -1 -130 -23 -309 -51 -413 -21 -78 -126 -297 -186
-388 -20 -29 -67 -77 -105 -107 -38 -30 -96 -85 -129 -122 -125 -143 -144
-159 -229 -203 -47 -24 -106 -54 -131 -67 -38 -19 -67 -24 -182 -30 -164 -7
-204 -23 -113 -44 68 -15 278 0 324 24 15 8 70 35 122 62 52 26 103 54 113 63
21 18 21 13 5 -75 -15 -81 -29 -91 -180 -139 -99 -31 -129 -36 -248 -40 -74
-3 -162 -7 -195 -9 -155 -10 -406 -4 -448 10 -54 19 -214 55 -245 55 -21 0
-23 4 -18 24 3 13 -5 67 -19 120 -14 53 -25 100 -25 105 0 13 172 -82 235
-129 64 -47 108 -66 169 -75 27 -3 53 -8 57 -10 3 -3 32 2 63 10 31 8 77 15
101 15 25 0 45 5 45 10 0 13 13 12 -155 19 -161 8 -187 15 -253 72 -18 16 -54
40 -80 54 -48 26 -69 37 -99 55 -10 6 -26 13 -35 16 -10 4 -18 10 -18 14 0 4
-10 11 -23 17 -12 6 -36 30 -52 54 -17 24 -39 50 -49 58 -11 8 -28 23 -38 33
-10 10 -20 18 -23 18 -2 0 -15 9 -27 21 -13 11 -42 37 -65 57 -51 45 -106 141
-139 240 -13 40 -29 87 -37 105 -7 18 -22 55 -31 82 -10 28 -26 73 -36 100
-25 68 -57 235 -71 375 -7 63 -27 174 -46 245 -19 72 -38 153 -42 180 -12 66
-20 87 -42 105 -18 14 -18 19 -4 94 16 85 83 238 118 272 52 50 59 65 52 103
-17 84 -17 84 65 111 41 14 92 33 113 43 31 15 126 37 161 37 5 0 6 3 2 7 -16
16 -143 0 -226 -28 -47 -16 -86 -29 -88 -29 -2 0 7 18 19 40 18 31 32 43 68
54 65 20 148 28 170 17 15 -8 20 -7 23 7 4 13 32 27 91 46 71 23 99 27 154 24
38 -3 76 -9 87 -13 14 -6 18 -5 14 5 -5 16 -86 40 -134 40 -27 0 -122 -21
-201 -46 -14 -4 -23 -2 -23 4 0 11 50 75 63 80 4 2 14 11 23 19 13 13 34 15
127 10 110 -5 253 -31 271 -48 6 -5 17 -9 25 -9 21 0 -14 36 -42 43 -12 3 -45
14 -74 25 -47 18 -193 39 -235 34 -26 -3 -22 10 10 41 35 33 107 41 195 20 96
-22 218 -87 279 -149 37 -37 45 -25 14 20 -23 34 -114 109 -165 136 -37 19
-157 50 -198 51 -36 0 -36 1 -15 12 35 16 205 -5 265 -33 51 -24 116 -81 161
-142 48 -65 74 -43 37 30 -31 60 -97 128 -148 152 -82 38 -256 53 -346 29 -73
-19 -148 -72 -197 -140 l-45 -62 -3 49 c-6 87 16 162 74 249 69 105 108 147
169 182 46 25 59 28 155 29 117 2 188 -9 237 -37 39 -22 42 -17 11 15 -32 31
-88 45 -216 53 -107 6 -111 5 -173 -24 -109 -51 -240 -204 -278 -323 -15 -49
-30 -280 -20 -308 5 -13 9 -25 9 -26 0 -2 -30 -3 -67 -3 -42 -1 -83 -7 -107
-17 -21 -10 -40 -15 -43 -13 -12 13 65 218 86 232 7 4 11 -9 11 -36 0 -56 20
-119 38 -119 10 0 12 7 8 26 -4 14 -7 78 -7 142 0 158 19 212 120 347 17 22
46 63 64 91 46 68 102 119 162 149 37 18 44 24 27 25 -27 0 -68 -20 -126 -62
-44 -31 -152 -158 -167 -195 -4 -13 -12 -23 -17 -23 -5 0 -15 -12 -22 -27 -8
-16 -19 -35 -26 -43 -27 -35 -55 -135 -53 -187 2 -49 1 -54 -30 -75 -18 -13
-39 -34 -46 -48 -27 -53 -56 -139 -61 -181 -5 -48 -23 -111 -33 -119 -24 -18
-52 -72 -43 -83 5 -7 12 -34 15 -61 5 -46 3 -50 -44 -105 -28 -31 -57 -64 -66
-73 -9 -10 -12 -18 -6 -18 6 0 1 -27 -12 -62 -41 -114 -52 -240 -23 -259 10
-7 41 -150 34 -157 -10 -9 -48 84 -72 173 -19 72 -24 114 -22 174 1 44 -1 83
-5 87 -16 16 -29 -17 -34 -89 -7 -88 8 -176 42 -254 13 -29 23 -53 22 -53 -1
0 -22 6 -47 14 -40 12 -48 19 -76 74 -18 33 -30 63 -28 65 3 3 -5 20 -16 40
-46 77 -63 186 -64 412 -3 330 27 545 105 759 24 66 112 269 153 353 14 29 26
56 26 59 0 6 102 127 126 149 6 6 35 39 65 74 117 138 127 145 468 316 107 53
153 62 344 64 105 1 142 -3 200 -20z m1746 -2400 c41 -40 61 -113 55 -192 -5
-59 -36 -148 -61 -175 -7 -7 -28 -32 -48 -57 -25 -30 -62 -57 -117 -85 -44
-22 -81 -40 -84 -40 -11 0 4 178 18 205 14 26 24 74 33 145 6 45 19 97 28 108
17 22 65 14 83 -13 24 -36 14 -136 -20 -210 -27 -60 -28 -77 -1 -55 33 28 66
100 74 162 7 55 9 59 15 33 4 -16 11 -41 16 -55 l8 -25 15 34 c36 84 -34 172
-139 174 -54 0 -55 13 -6 49 51 37 93 36 131 -3z m-3048 -3 c60 -21 137 -77
150 -108 6 -16 9 -31 6 -34 -3 -3 -29 8 -58 25 -46 25 -61 29 -101 24 -68 -8
-83 -29 -81 -111 2 -43 8 -71 18 -81 8 -8 17 -12 20 -10 4 5 12 74 14 137 1
23 22 29 56 16 14 -6 15 -18 10 -83 -7 -83 5 -130 44 -165 31 -28 36 -13 18
51 -21 76 -31 173 -17 173 6 0 30 -9 54 -20 48 -21 50 -27 62 -188 4 -56 11
-95 37 -225 2 -13 -48 -25 -80 -19 -51 9 -142 112 -197 221 -36 69 -76 211
-76 264 0 52 18 103 44 130 20 20 29 20 77 3z m2313 -1583 c-3 -59 -7 -69 -31
-89 -33 -26 -37 -18 -24 46 5 25 9 35 10 22 1 -34 25 -22 29 15 2 24 -1 32
-17 36 -33 8 -26 37 8 37 l29 0 -4 -67z m-1578 -225 c18 -10 64 -22 103 -28
97 -14 147 -25 238 -56 71 -24 89 -26 227 -24 227 4 206 9 206 -52 0 -78 -8
-98 -41 -105 -39 -7 -37 -26 1 -21 27 4 30 2 30 -24 0 -18 -6 -31 -17 -34 -44
-14 -47 -18 -15 -22 26 -3 32 -8 32 -28 0 -19 -5 -24 -24 -24 -14 0 -28 -4
-31 -10 -4 -6 7 -10 24 -10 29 0 31 -3 31 -35 0 -31 -3 -35 -27 -36 l-28 0 33
-16 c36 -19 44 -53 12 -53 -11 0 -20 -4 -20 -10 0 -5 9 -10 20 -10 16 0 20 -7
20 -30 0 -22 -5 -30 -17 -30 -15 0 -15 -2 2 -14 14 -10 20 -28 22 -71 2 -50 0
-56 -15 -50 -34 13 -139 24 -247 24 -60 0 -155 7 -210 16 -55 8 -114 15 -130
15 -17 0 -40 7 -52 15 -13 9 -23 11 -25 5 -2 -6 -22 -1 -48 12 -34 18 -47 30
-51 53 -4 17 -7 22 -8 13 -1 -21 -5 -22 -32 -7 -11 5 -17 13 -15 18 3 4 8 81
11 172 8 197 7 190 13 184 2 -2 5 -79 7 -172 1 -107 5 -168 12 -170 7 -3 11
46 12 149 1 84 4 191 8 238 3 47 6 99 7 117 1 17 5 35 9 39 10 10 9 24 -2 24
-5 0 -13 -10 -17 -22 l-7 -23 -11 26 c-6 14 -16 33 -23 40 -6 8 -17 28 -23 44
-10 27 -10 28 7 14 10 -8 32 -22 49 -31z m968 -365 c12 -16 14 -24 6 -21 -16
5 -46 48 -34 48 5 0 18 -12 28 -27z m-1539 -159 c23 -9 42 -51 49 -115 7 -52
5 -59 -20 -88 -25 -30 -28 -31 -38 -14 -5 10 -11 25 -12 33 -1 8 -5 33 -9 55
-5 32 -3 44 9 54 20 17 21 51 1 51 -8 0 -15 -7 -15 -16 0 -11 -6 -14 -20 -9
-18 6 -20 3 -15 -17 4 -17 1 -29 -11 -39 -15 -12 -16 -12 -11 6 3 11 9 37 12
57 6 30 12 38 34 41 14 2 27 5 28 6 1 0 9 -2 18 -5z m-40 -201 c5 -35 4 -43
-9 -43 -9 0 -18 11 -21 25 -3 14 -8 37 -11 52 -3 16 0 29 8 34 15 9 22 -6 33
-68z m-708 -10 c-34 -78 -34 -78 -42 -33 -8 45 2 60 37 60 15 0 16 -3 5 -27z
m-38 -125 l22 -37 -26 -46 c-15 -25 -23 -45 -19 -45 4 0 5 -3 1 -6 -3 -3 -24
13 -45 35 l-40 42 16 32 c9 18 17 57 18 87 2 42 6 56 21 61 15 5 19 -1 24 -40
3 -25 15 -63 28 -83z m805 19 c10 -48 8 -76 -7 -97 -12 -17 -14 -16 -26 13 -7
18 -17 40 -22 50 -6 12 -6 31 2 57 11 37 13 39 30 24 9 -8 20 -30 23 -47z
m-734 0 c0 -4 -7 -16 -16 -24 -13 -14 -17 -14 -25 -2 -12 18 -11 26 2 51 11
21 12 21 25 3 8 -10 14 -23 14 -28z m1454 -28 c6 -5 -1 -18 -15 -33 -25 -25
-50 -68 -70 -121 l-11 -30 -19 40 c-17 37 -27 144 -14 157 8 7 119 -3 129 -13z
m216 2 c0 -4 -7 -21 -15 -37 -19 -39 -23 -96 -7 -101 7 -3 12 5 12 21 0 33 18
43 25 14 7 -27 -9 -78 -24 -78 -5 0 -23 16 -39 36 -36 43 -51 122 -27 140 17
13 75 16 75 5z m-112 -48 c-10 -44 -54 -122 -69 -123 -4 0 -9 10 -12 23 -3 12
-11 36 -18 53 -11 28 -10 35 10 63 18 25 29 31 60 31 l39 0 -10 -47z m288 19
c12 -8 14 -52 2 -52 -4 0 -8 -4 -8 -10 0 -5 6 -7 13 -4 9 3 21 -12 35 -45 16
-40 18 -50 6 -55 -24 -9 -50 26 -45 62 1 8 -4 19 -12 25 -20 16 -32 87 -15 87
7 0 18 -4 24 -8z m-684 -59 c10 -37 -13 -92 -29 -71 -16 21 -23 84 -10 97 17
17 30 8 39 -26z m-1323 -7 c13 -13 27 -43 32 -66 9 -38 7 -47 -16 -81 -18 -28
-32 -39 -50 -39 l-25 0 22 45 c12 25 28 45 35 45 9 0 11 5 4 18 -40 74 -50
102 -38 102 8 0 24 -11 36 -24z m1612 -46 c14 -46 13 -48 -29 -56 -25 -5 -32
-3 -32 9 0 21 31 87 41 87 5 0 14 -18 20 -40z m-235 -54 c20 -36 27 -105 13
-123 -18 -21 -39 -15 -39 11 0 14 -4 27 -9 30 -15 9 -20 75 -9 107 11 33 14
32 44 -25z m-1705 -77 c18 -91 19 -129 4 -129 -27 0 -40 46 -37 133 2 48 24
45 33 -4z m549 -108 c0 -11 -4 -23 -10 -26 -5 -3 -10 -2 -10 4 0 5 -3 16 -6
25 -4 11 -1 16 10 16 9 0 16 -8 16 -19z"/>
<path d="M3684 5132 c3 -5 21 -10 38 -10 18 0 63 -12 100 -26 65 -25 94 -37
223 -94 76 -34 221 -175 325 -316 67 -91 166 -289 168 -336 0 -8 7 -69 15
-135 14 -107 15 -277 2 -313 -3 -8 0 -12 7 -10 20 7 50 108 55 188 12 169 -33
374 -113 518 -81 144 -287 370 -386 422 -38 20 -148 62 -203 77 -11 3 -33 11
-50 18 -39 17 -190 32 -181 17z"/>
<path d="M2135 5102 c-22 -9 -65 -34 -95 -54 -72 -48 -215 -192 -231 -232 -7
-17 -23 -45 -36 -62 -13 -17 -23 -34 -23 -37 0 -4 -22 -38 -49 -75 -49 -69
-66 -103 -112 -217 -60 -153 -80 -357 -70 -747 2 -72 12 -101 29 -83 4 4 1 10
-5 12 -9 3 -10 10 -4 21 4 9 11 112 15 227 3 116 9 226 12 245 19 123 36 210
45 240 26 87 76 200 111 250 57 84 119 187 122 203 7 52 206 252 286 289 27
13 50 26 50 30 0 10 3 10 -45 -10z"/>
<path d="M3290 5030 c-44 -9 -69 -19 -185 -75 -93 -45 -142 -81 -163 -121 -20
-38 0 -34 49 9 26 23 76 54 111 69 35 15 86 37 113 50 98 44 390 33 519 -20
109 -45 217 -79 213 -68 -6 18 -120 95 -142 96 -11 0 -28 7 -39 15 -17 13 -79
29 -161 42 -51 8 -278 10 -315 3z"/>
<path d="M2289 4962 c-176 -89 -217 -127 -327 -295 -81 -126 -128 -217 -167
-327 -15 -41 -37 -102 -50 -135 -46 -124 -42 -112 -61 -200 -24 -108 -32 -175
-22 -181 15 -10 19 -1 43 118 13 62 33 138 45 168 91 238 131 335 162 394 16
32 34 64 40 70 5 6 19 28 31 48 72 124 105 168 155 211 31 26 68 53 82 60 14
7 44 27 68 45 24 17 59 36 78 42 19 6 34 16 34 21 0 15 -11 11 -111 -39z"/>
<path d="M2667 4943 c-17 -17 9 -143 31 -151 26 -8 26 55 -1 121 -17 39 -19
41 -30 30z"/>
<path d="M3315 4841 c-92 -23 -146 -48 -228 -106 -57 -40 -117 -107 -117 -131
0 -3 28 16 63 43 58 47 138 93 217 127 69 30 173 44 308 43 72 -1 132 1 132 5
0 33 -265 47 -375 19z"/>
<path d="M3407 4714 c-2 -2 -21 -6 -43 -9 -62 -9 -147 -35 -174 -53 -14 -9
-38 -24 -55 -33 -32 -17 -120 -118 -111 -126 3 -3 26 15 51 39 96 95 228 138
425 139 218 2 314 -48 578 -298 40 -39 42 -39 42 -13 0 11 -6 20 -14 20 -8 0
-23 16 -35 35 -11 19 -25 35 -31 35 -5 0 -10 6 -10 14 0 24 -147 151 -213 184
-103 51 -161 64 -289 67 -65 1 -119 0 -121 -1z"/>
<path d="M4040 4667 c0 -7 14 -26 31 -43 69 -65 164 -282 176 -398 13 -130 8
-345 -9 -378 -15 -30 7 -21 65 28 105 86 137 145 141 255 4 97 -11 179 -51
280 -30 78 -107 189 -130 189 -18 0 -19 3 32 -92 92 -173 120 -380 67 -489
-26 -54 -91 -131 -91 -109 0 8 6 26 14 40 17 30 21 256 5 310 -6 19 -15 53
-19 75 -15 69 -51 155 -84 205 -69 102 -147 169 -147 127z"/>
<path d="M3320 4505 c-30 -7 -75 -22 -100 -33 -53 -24 -176 -133 -186 -165 -4
-12 -10 -24 -13 -27 -16 -12 -45 -67 -51 -97 -12 -53 11 -40 59 32 49 73 159
180 227 220 42 25 57 28 148 29 112 1 170 -16 100 -28 -119 -22 -285 -159
-272 -224 3 -15 5 -15 18 2 102 122 202 177 336 184 59 3 88 0 110 -11 32 -17
80 -64 73 -72 -3 -2 -32 -7 -65 -11 -64 -7 -217 -72 -240 -102 -29 -37 -12
-40 50 -6 43 23 99 41 167 55 116 24 178 21 221 -11 15 -11 32 -20 39 -20 24
0 130 -72 163 -112 19 -22 50 -71 68 -109 49 -101 62 -93 55 34 -3 57 -11 116
-17 131 -6 16 -15 48 -20 72 -9 40 -60 130 -60 106 0 -6 -3 -17 -6 -26 -4 -11
0 -16 12 -17 11 0 14 -3 8 -5 -7 -3 -5 -21 7 -57 9 -29 20 -68 24 -87 l7 -35
-43 40 c-24 22 -46 43 -49 46 -3 3 -30 17 -60 32 -31 14 -64 35 -74 46 -10 11
-38 23 -63 27 -36 5 -49 13 -63 37 -24 39 -86 88 -141 111 -24 10 -58 25 -75
32 -63 27 -214 37 -294 19z"/>
<path d="M1655 3797 c-4 -10 -5 -21 -1 -24 10 -10 18 4 13 24 -4 17 -4 17 -12
0z"/>
<path d="M3675 3539 c-84 -6 -105 -15 -105 -41 0 -18 4 -19 43 -11 23 4 94 7
157 5 131 -4 150 -12 188 -80 24 -43 57 -56 68 -28 8 22 -22 78 -64 119 -37
36 -39 36 -127 39 -50 2 -121 0 -160 -3z"/>
<path d="M3490 3519 c-6 -11 -10 -25 -8 -30 4 -12 58 27 58 42 0 18 -39 9 -50
-12z"/>
<path d="M2384 3507 c-109 -39 -201 -124 -162 -149 23 -14 37 -9 83 36 70 67
134 79 350 67 145 -8 167 2 92 38 -34 17 -68 22 -172 25 -115 4 -137 2 -191
-17z"/>
<path d="M2517 3202 c-24 -26 -23 -104 2 -126 21 -19 97 -24 128 -8 22 12 36
61 26 89 -3 10 -15 28 -26 41 -27 29 -105 31 -130 4z"/>
<path d="M3704 3191 c-19 -12 -33 -30 -37 -48 -6 -33 16 -93 35 -94 33 -3 85
4 101 13 46 24 39 101 -12 131 -37 22 -49 21 -87 -2z"/>
<path d="M3339 3128 c-18 -36 -21 -52 -15 -110 3 -38 20 -107 36 -155 23 -67
30 -104 30 -164 0 -78 11 -129 29 -129 5 0 17 7 25 16 13 12 14 30 10 92 -7
93 -13 117 -59 252 -38 111 -40 152 -9 213 14 25 13 27 -6 27 -13 0 -27 -14
-41 -42z"/>
<path d="M3310 2497 c0 -18 45 -41 64 -34 23 9 20 22 -9 35 -34 16 -55 15 -55
-1z"/>
<path d="M3049 2481 c-21 -17 -22 -20 -7 -26 19 -8 70 14 76 33 6 19 -43 14
-69 -7z"/>
<path d="M2740 2385 c-14 -8 -34 -18 -45 -24 -38 -18 -95 -83 -105 -119 -16
-60 -12 -162 9 -208 34 -75 62 -73 36 2 -10 30 -15 75 -14 121 2 61 7 81 29
117 16 24 40 52 55 62 74 52 98 86 35 49z"/>
<path d="M3671 2333 c24 -30 47 -76 58 -120 14 -53 32 -57 24 -5 -8 48 -48
128 -68 136 -26 10 -29 7 -14 -11z"/>
<path d="M2857 2073 c-10 -3 -17 -12 -15 -21 5 -28 153 -63 295 -69 104 -5
135 -2 220 17 104 25 143 43 143 67 0 11 -6 14 -22 9 -160 -45 -346 -56 -478
-28 -52 11 -102 22 -110 25 -8 2 -23 3 -33 0z"/>
<path d="M3090 1751 c0 -10 94 -20 123 -13 41 10 12 22 -53 22 -38 0 -70 -4
-70 -9z"/>
<path d="M2646 1104 c-8 -21 -8 -21 7 -21 7 0 14 9 14 19 2 22 -13 24 -21 2z"/>
<path d="M2889 1069 c0 -8 -2 -25 -5 -38 -4 -20 -2 -22 11 -11 8 7 13 20 12
31 -4 23 -17 37 -18 18z"/>
<path d="M2637 1046 c-3 -8 -4 -27 -1 -43 7 -38 7 -51 -2 -97 -6 -31 -4 -38 7
-34 10 3 15 28 17 90 3 79 -8 119 -21 84z"/>
<path d="M2887 984 c-11 -11 -8 -104 3 -104 11 0 12 2 15 45 2 36 -8 69 -18
59z"/>
<path d="M2887 863 c-13 -12 -7 -43 8 -43 9 0 15 9 15 25 0 24 -10 32 -23 18z"/>
<path d="M2633 846 c3 -8 3 -17 0 -20 -5 -5 -6 -62 -4 -174 1 -22 5 -32 14
-30 14 5 21 98 7 98 -5 0 -7 7 -3 16 5 15 7 60 4 107 0 9 -6 17 -12 17 -6 0
-9 -6 -6 -14z"/>
<path d="M2893 760 c5 -44 17 -49 15 -6 -1 20 -5 36 -10 36 -4 0 -6 -14 -5
-30z"/>
<path d="M2894 660 c4 -57 16 -62 16 -7 0 26 -4 47 -10 47 -5 0 -8 -18 -6 -40z"/>
<path d="M2170 1291 c0 -22 17 -37 28 -26 4 4 2 10 -5 12 -7 2 -9 11 -6 19 3
8 0 14 -6 14 -6 0 -11 -9 -11 -19z"/>
<path d="M4178 1168 c5 -67 4 -72 -11 -59 -10 7 -17 9 -17 4 0 -18 31 -73 41
-73 6 0 8 -4 5 -9 -4 -5 -1 -22 5 -38 18 -43 19 -182 3 -222 -22 -53 -19 -68
14 -63 23 3 34 17 67 80 26 50 47 78 60 81 11 2 23 8 26 13 3 5 28 -3 55 -19
80 -47 168 -81 292 -113 125 -33 231 -68 247 -82 5 -4 15 -8 21 -8 7 0 50 -22
95 -50 45 -27 87 -50 93 -50 6 0 55 -21 108 -46 89 -43 97 -49 100 -78 4 -41
-21 -96 -43 -96 -10 0 -21 -4 -24 -10 -3 -6 -2 -10 4 -10 5 0 19 -24 30 -52
18 -47 20 -50 21 -23 l1 30 14 -34 c18 -40 19 -75 4 -103 -13 -25 -3 -37 15
-17 31 31 24 111 -14 151 -35 36 -36 45 -14 70 10 10 19 40 22 67 l4 49 47
-20 c61 -26 64 -29 46 -66 -26 -50 -24 -111 4 -133 32 -26 55 -26 39 1 -11 16
-9 22 7 34 11 8 17 18 13 21 -4 4 -14 0 -23 -9 -34 -34 -42 -15 -26 57 5 21
12 41 15 44 7 8 76 -37 77 -50 2 -22 -3 -42 -18 -75 -9 -18 -13 -36 -9 -39 3
-3 6 0 6 9 0 8 9 23 20 33 11 10 20 27 20 37 0 17 2 17 28 4 45 -25 147 -109
135 -113 -7 -3 -9 -19 -6 -43 6 -43 -3 -90 -16 -90 -5 0 -12 19 -17 42 l-8 43
-4 -39 c-6 -61 2 -71 38 -49 36 21 44 42 35 89 -7 38 -20 49 141 -123 26 -28
54 -30 54 -4 0 31 -220 262 -295 309 -22 14 -65 44 -95 66 -53 41 -359 196
-385 196 -15 0 -164 77 -186 96 -8 8 -23 14 -32 14 -9 0 -18 4 -22 9 -3 5 -19
12 -35 16 -17 4 -44 13 -61 22 -16 8 -58 21 -92 29 -126 29 -267 77 -385 130
-18 8 -41 12 -52 9 -15 -5 -20 -2 -20 14 0 11 -13 35 -29 53 -45 52 -69 109
-95 231 -4 17 -13 27 -25 27 -17 0 -18 -7 -13 -72z m90 -220 c16 -16 15 -53
-2 -67 -12 -10 -15 -4 -18 34 -3 47 0 53 20 33z"/>
<path d="M3800 1181 c0 -5 6 -14 14 -20 12 -10 13 -8 9 8 -5 21 -23 30 -23 12z"/>
<path d="M3692 1168 c2 -6 10 -14 16 -16 7 -2 10 2 6 12 -7 18 -28 22 -22 4z"/>
<path d="M3818 1110 c2 -16 9 -30 14 -30 13 0 6 53 -8 57 -7 2 -9 -8 -6 -27z"/>
<path d="M3715 1072 c2 -29 26 -82 35 -77 10 6 -14 88 -27 92 -5 2 -9 -5 -8
-15z"/>
<path d="M3832 1058 c2 -6 10 -14 16 -16 7 -2 10 2 6 12 -7 18 -28 22 -22 4z"/>
<path d="M3617 983 c-3 -7 -2 -100 2 -125 0 -5 5 -8 11 -8 5 0 8 28 6 65 -4
64 -9 85 -19 68z"/>
<path d="M4129 888 c-2 -56 -4 -72 -18 -138 -14 -68 -3 -114 27 -118 20 -3 21
-1 11 21 -7 16 -8 40 -1 78 11 58 5 186 -9 195 -5 3 -10 -14 -10 -38z"/>
<path d="M3612 809 c1 -12 9 -24 16 -27 9 -3 13 3 10 19 -1 12 -9 24 -16 27
-9 3 -13 -3 -10 -19z"/>
<path d="M4484 811 c3 -5 -1 -15 -10 -22 -48 -39 -69 -172 -39 -239 11 -25 24
-38 35 -37 11 1 15 7 12 19 -2 10 1 18 6 18 6 0 16 -19 23 -42 6 -24 16 -46
22 -50 19 -12 -5 -63 -31 -66 -12 -2 -22 -10 -22 -18 0 -22 -17 -16 -24 9 -3
12 -6 40 -6 62 0 44 -14 77 -22 53 -3 -7 -4 -26 -3 -43 1 -16 3 -45 4 -62 1
-44 34 -77 60 -61 11 6 16 18 13 30 -3 12 1 18 13 18 27 0 47 28 52 75 5 40 2
46 -32 81 -37 36 -37 38 -32 98 6 58 6 60 -8 31 -8 -16 -17 -47 -21 -68 -9
-50 -24 -29 -24 34 0 49 27 149 41 149 15 0 33 -83 34 -147 0 -35 1 -63 4 -63
11 0 30 38 31 62 0 65 -46 188 -72 188 -5 0 -7 -4 -4 -9z"/>
<path d="M1885 734 c-29 -69 -1 -164 48 -164 6 0 2 7 -9 15 -27 18 -36 75 -23
133 13 57 5 65 -16 16z"/>
<path d="M3469 757 c0 -4 -1 -23 -1 -42 0 -66 2 -76 12 -70 11 7 8 101 -4 112
-3 3 -6 3 -7 0z"/>
<path d="M4666 699 c-65 -51 -90 -183 -43 -227 13 -12 32 -22 42 -22 15 0 14
4 -9 25 -21 20 -26 33 -26 75 0 59 18 108 51 138 30 29 19 38 -15 11z"/>
<path d="M4740 703 c0 -5 5 -14 10 -19 17 -17 32 -132 20 -154 -14 -27 -27
-25 -34 5 -4 14 -13 25 -22 25 -11 0 -14 6 -8 23 9 29 1 20 -19 -22 -14 -29
-14 -31 -1 -20 19 16 30 1 40 -51 4 -19 15 -46 25 -60 22 -32 32 -91 18 -110
-8 -11 -12 -12 -16 -2 -2 6 -11 12 -19 12 -11 0 -12 4 -4 19 5 11 10 28 10 38
-1 16 -2 16 -12 -2 -6 -11 -26 -38 -45 -61 -50 -62 -45 -89 6 -32 31 34 45 32
56 -9 3 -14 15 -38 26 -51 26 -33 25 -88 -1 -102 -11 -6 -25 -8 -30 -5 -6 3
-10 2 -10 -3 0 -12 50 -102 57 -102 10 0 -9 55 -24 73 -15 15 -15 17 0 17 8 0
24 11 35 25 17 21 18 32 11 72 -5 27 -16 53 -25 60 -14 10 -14 14 2 37 21 34
13 110 -16 141 -26 28 -25 35 8 61 24 20 27 28 25 79 -1 33 -9 69 -20 87 -18
31 -43 49 -43 31z"/>
<path d="M1137 581 c5 -50 2 -64 -16 -89 -26 -37 -11 -52 17 -17 35 44 38 151
5 162 -8 3 -10 -14 -6 -56z"/>
<path d="M4945 603 c11 -25 14 -51 9 -80 -8 -54 11 -59 25 -6 14 50 -4 123
-30 123 -18 0 -18 -2 -4 -37z"/>
<path d="M4837 603 c-11 -20 -6 -115 7 -147 20 -47 38 -48 23 -1 -7 26 -7 39
0 46 16 16 29 4 37 -31 3 -17 17 -41 30 -53 29 -25 59 -104 44 -113 -5 -3 -6
-13 -3 -23 15 -39 16 -94 0 -117 -12 -19 -13 -24 -2 -24 23 0 40 45 32 82 -4
18 -7 53 -6 78 1 55 -14 94 -51 138 -15 18 -28 39 -28 46 0 7 -9 21 -20 31
l-20 18 22 24 c18 19 19 23 5 23 -9 0 -17 -6 -17 -14 0 -7 -7 -19 -15 -26 -13
-11 -15 -7 -15 29 0 37 -12 54 -23 34z"/>
<path d="M2010 547 c0 -5 9 -20 20 -34 11 -14 20 -21 20 -15 0 12 -39 60 -40
49z"/>
<path d="M4094 532 c-13 -9 -35 -72 -29 -82 3 -5 1 -10 -4 -12 -4 -1 -11 -13
-15 -25 -6 -18 -4 -22 7 -17 17 6 33 -29 21 -47 -4 -7 -1 -10 6 -7 25 8 50 53
56 100 11 77 -7 114 -42 90z m15 -100 c-10 -38 -14 -41 -26 -29 -13 13 -13 22
4 70 17 52 18 54 26 29 4 -15 2 -46 -4 -70z"/>
<path d="M5025 530 c-12 -19 5 -94 25 -114 11 -11 20 -15 20 -9 0 7 -4 15 -10
18 -5 3 -10 15 -10 26 0 10 -4 19 -8 19 -4 0 -6 16 -4 35 4 34 -1 44 -13 25z"/>
<path d="M5135 532 c-5 -4 -23 -22 -40 -41 -26 -28 -27 -33 -10 -29 12 2 27
-5 38 -19 27 -34 41 -17 16 18 l-21 30 23 25 c21 22 17 33 -6 16z"/>
<path d="M5177 489 c3 -31 1 -60 -7 -74 -9 -17 -9 -28 -1 -43 13 -24 15 -55 3
-48 -4 2 -14 0 -22 -5 -12 -8 -12 -12 -2 -16 6 -2 12 -13 12 -22 0 -22 -43
-64 -55 -54 -4 5 -5 2 -1 -4 4 -7 2 -23 -5 -35 -10 -20 -7 -19 21 7 32 29 33
27 14 -20 -5 -11 1 -15 19 -15 20 0 28 -7 38 -37 8 -24 8 -38 2 -40 -19 -7 13
-78 36 -81 25 -4 25 -5 5 70 -11 43 -12 64 -5 71 16 16 13 80 -4 103 -8 10
-15 36 -15 57 0 21 -6 53 -14 72 -9 21 -11 37 -5 41 16 10 6 124 -11 124 -5 0
-6 -23 -3 -51z m40 -284 c2 -49 -1 -53 -23 -31 -17 17 -18 31 -4 57 17 30 25
22 27 -26z"/>
<path d="M1316 522 c-2 -4 8 -14 24 -21 68 -29 95 -147 45 -196 -51 -52 -79
-15 -46 61 12 26 21 55 21 65 0 24 -20 36 -21 12 0 -10 -24 -67 -53 -128 -32
-65 -49 -112 -43 -114 6 -2 16 4 22 13 42 71 57 58 59 -56 2 -76 16 -138 32
-138 3 0 4 13 2 29 -2 20 5 38 20 54 19 20 22 32 18 62 -4 21 -15 50 -26 65
-20 28 -20 29 -1 35 67 21 93 126 49 193 -23 34 -93 78 -102 64z m54 -336 c12
-38 -4 -105 -19 -76 -7 14 -3 110 4 110 2 0 8 -15 15 -34z"/>
<path d="M1905 454 c-25 -57 -34 -134 -15 -134 6 0 10 16 10 35 0 20 11 62 24
95 31 76 14 79 -19 4z"/>
<path d="M5266 457 c-5 -9 -6 -49 -4 -88 3 -54 8 -74 22 -84 16 -12 16 -18 7
-48 -11 -34 -10 -74 5 -144 13 -65 21 -31 16 72 -3 78 -1 105 7 105 8 0 4 11
-8 27 -20 25 -20 27 -4 52 9 14 24 32 32 39 13 11 13 12 1 6 -8 -4 -23 -14
-32 -22 -21 -18 -26 -9 -31 58 -2 33 -5 40 -11 27z"/>
<path d="M3982 416 c-6 -22 -9 -42 -7 -46 2 -3 6 -19 9 -35 7 -35 23 -52 60
-61 21 -5 27 -4 22 5 -4 6 -14 11 -21 11 -22 0 -38 38 -45 105 l-6 60 -12 -39z"/>
<path d="M3710 374 c0 -36 -5 -56 -18 -67 -26 -24 -29 -22 -52 24 -21 40 -21
42 -3 61 13 15 14 20 4 16 -8 -2 -24 -16 -35 -31 -19 -25 -19 -28 -3 -39 9 -7
23 -33 30 -58 8 -27 19 -45 27 -45 17 0 37 -83 27 -109 -10 -25 -20 -19 -44
25 -17 31 -20 46 -12 60 7 13 6 19 -1 19 -6 0 -13 -8 -16 -17 -3 -10 -12 -31
-19 -48 -17 -37 -9 -47 14 -17 l17 24 13 -41 c9 -33 16 -41 36 -41 16 0 25 -7
28 -22 4 -19 5 -18 7 7 7 96 3 134 -18 160 -25 32 -28 45 -9 45 14 0 57 72 57
94 0 7 -7 21 -15 32 -13 17 -14 15 -15 -32z"/>
<path d="M4620 374 c-21 -54 -5 -134 27 -134 15 0 15 2 4 9 -11 7 -15 30 -15
80 -1 39 -2 71 -4 71 -1 0 -7 -12 -12 -26z"/>
<path d="M5069 387 c-17 -13 -23 -84 -8 -102 7 -10 9 -16 9 -35 0 -5 5 -10 11
-10 6 0 8 9 4 20 -4 11 -1 36 5 56 15 43 5 58 -11 18 -15 -36 -24 -10 -10 28
8 21 15 25 38 22 24 -4 25 -3 8 5 -26 12 -27 12 -46 -2z"/>
<path d="M3300 350 c0 -42 -2 -46 -38 -62 -31 -13 -33 -16 -14 -17 13 -1 32 4
43 10 16 8 24 6 40 -13 18 -20 20 -21 14 -3 -4 11 -11 38 -17 59 -15 66 -27
77 -28 26z"/>
<path d="M3528 374 c-14 -13 -9 -64 9 -90 14 -21 14 -31 5 -58 -15 -39 -16
-115 -2 -150 6 -17 17 -26 32 -26 20 0 20 1 5 13 -17 12 -23 60 -19 151 2 33
5 38 22 33 17 -4 18 -2 10 14 -6 10 -17 22 -25 27 -9 4 -19 27 -23 51 -4 23
-10 39 -14 35z"/>
<path d="M4912 329 c5 -28 18 -66 28 -85 14 -25 16 -34 7 -34 -35 0 -74 -98
-46 -116 6 -3 18 -23 27 -43 16 -36 16 -36 20 -9 2 15 -2 36 -7 47 -20 36 -13
88 14 109 l25 20 -25 48 c-14 27 -25 59 -25 70 0 12 -6 27 -14 33 -11 9 -12 3
-4 -40z"/>
<path d="M1540 360 c0 -6 7 -27 15 -48 11 -24 12 -38 5 -40 -6 -2 -22 -27 -37
-55 -32 -64 -32 -65 -44 -47 -7 10 -8 -3 -4 -43 7 -70 17 -98 41 -117 16 -14
16 -13 0 19 -22 41 -17 96 13 146 11 20 21 42 21 49 0 19 37 50 44 37 4 -6 8
-33 9 -62 2 -43 -2 -54 -22 -70 -17 -14 -27 -17 -35 -9 -22 22 -23 7 -3 -55
23 -70 41 -90 24 -27 -12 47 -5 72 22 72 61 0 58 149 -3 199 -9 8 -16 24 -16
37 0 15 -6 24 -15 24 -8 0 -15 -5 -15 -10z"/>
<path d="M4863 308 c4 -28 12 -55 19 -59 18 -12 19 -8 4 48 -8 29 -11 54 -8
57 3 3 -1 6 -8 6 -10 0 -11 -13 -7 -52z"/>
<path d="M4550 342 c0 -7 7 -26 14 -41 15 -28 12 -65 -7 -88 -6 -9 -6 -13 2
-13 6 0 17 10 26 23 11 18 12 31 5 58 -11 38 -39 82 -40 61z"/>
<path d="M1670 328 c0 -7 5 -20 10 -28 8 -12 10 -9 10 13 0 15 -4 27 -10 27
-5 0 -10 -6 -10 -12z"/>
<path d="M4105 330 c-3 -5 0 -10 7 -10 21 0 48 -54 48 -96 0 -30 -3 -35 -12
-26 -17 17 -33 15 -18 -3 7 -8 10 -21 7 -29 -9 -23 19 -27 39 -5 20 22 21 86
3 122 -26 50 -59 71 -74 47z"/>
<path d="M718 287 c-22 -52 -23 -106 -2 -135 21 -30 38 -28 19 2 -19 28 -13
106 11 143 17 27 17 33 2 33 -7 0 -21 -19 -30 -43z"/>
<path d="M4500 328 c0 -3 7 -21 15 -39 16 -34 16 -34 10 -4 -6 26 -25 60 -25
43z"/>
<path d="M1806 293 c12 -49 25 -72 19 -34 -3 18 -5 40 -5 47 0 8 -5 14 -10 14
-6 0 -8 -11 -4 -27z"/>
<path d="M482 287 c-7 -16 -12 -32 -12 -38 0 -5 -8 -14 -17 -20 -13 -8 -18
-23 -17 -54 1 -23 5 -48 9 -55 4 -6 7 -31 8 -56 0 -24 4 -44 8 -44 14 0 18 48
8 112 -10 63 -9 70 11 98 13 18 20 40 18 57 l-4 28 -12 -28z"/>
<path d="M1734 284 c-4 -10 -9 -22 -11 -26 -2 -5 0 -8 5 -8 10 0 24 41 17 48
-3 3 -8 -4 -11 -14z"/>
<path d="M4460 274 c-18 -46 -6 -134 18 -134 5 0 6 18 2 42 -5 23 -7 46 -5 52
2 6 6 23 9 39 8 35 -11 36 -24 1z"/>
<path d="M3035 263 c13 -46 8 -106 -11 -120 -26 -19 -12 -25 15 -7 20 15 22
22 17 72 -3 30 -10 60 -17 66 -8 8 -10 5 -4 -11z"/>
<path d="M4107 253 c-13 -22 -24 -83 -16 -89 5 -3 9 -2 9 3 1 4 5 27 9 51 8
40 7 50 -2 35z"/>
<path d="M5640 215 c5 -14 12 -48 15 -77 5 -43 4 -51 -6 -40 -28 27 -36 12
-16 -29 l20 -42 14 44 c19 62 2 169 -27 169 -6 0 -6 -9 0 -25z"/>
<path d="M275 206 c-7 -25 -4 -33 19 -52 14 -13 42 -26 61 -30 l35 -6 0 -59
c0 -33 4 -59 10 -59 11 0 13 88 4 167 -7 58 -23 64 -20 8 1 -30 -2 -35 -20
-35 -31 0 -72 36 -76 68 l-4 27 -9 -29z"/>
<path d="M1900 210 c-17 -31 -23 -112 -11 -142 16 -41 31 -35 20 8 -9 31 -4
128 8 147 2 4 2 7 -1 7 -3 0 -10 -9 -16 -20z"/>
<path d="M2864 219 c-3 -6 -9 -40 -12 -75 -5 -71 13 -114 49 -114 11 0 22 -7
25 -15 9 -22 23 -18 21 5 -1 13 -8 20 -23 20 -38 0 -53 38 -48 119 4 70 2 82
-12 60z"/>
<path d="M4031 170 c-2 -53 5 -90 18 -90 9 0 2 122 -8 133 -4 4 -8 -15 -10
-43z"/>
<path d="M5506 191 c-9 -14 -10 -107 -1 -122 4 -5 18 -9 33 -9 l27 0 -22 18
c-17 13 -23 29 -25 72 -2 36 -6 50 -12 41z"/>
<path d="M1715 148 c4 -23 12 -59 19 -80 9 -25 10 -40 3 -47 -7 -7 -3 -8 12
-4 19 5 21 10 15 42 -4 20 -10 40 -15 46 -5 5 -9 19 -9 31 0 29 -10 54 -22 54
-5 0 -6 -18 -3 -42z"/>
<path d="M5066 158 c-15 -50 35 -139 78 -138 6 0 4 6 -4 13 -31 24 -59 74 -62
113 -4 37 -4 38 -12 12z"/>
<path d="M4570 158 c0 -8 5 -28 10 -45 7 -20 8 -38 1 -56 -11 -29 2 -38 17
-11 8 14 12 12 31 -15 29 -41 46 -40 21 2 -10 17 -24 54 -31 80 -6 26 -14 45
-17 42 -3 -2 -11 0 -19 6 -10 9 -13 8 -13 -3z"/>
<path d="M1017 143 c-12 -19 4 -143 18 -143 9 0 10 12 4 48 -4 26 -9 61 -11
77 -2 19 -6 25 -11 18z"/>
<path d="M5325 141 c-3 -7 -1 -10 5 -9 6 2 23 -27 38 -64 24 -61 52 -90 52
-54 0 41 -81 149 -95 127z"/>
<path d="M1227 134 c-13 -13 -7 -81 8 -94 8 -7 15 -19 15 -26 0 -8 4 -14 9
-14 5 0 9 25 8 55 -1 30 -4 49 -9 43 -7 -12 -10 -8 -20 30 -2 7 -7 10 -11 6z"/>
<path d="M290 91 c-6 -12 -7 -21 -1 -21 10 0 24 30 17 37 -2 3 -9 -5 -16 -16z"/>
<path d="M4359 75 c16 -35 31 -46 31 -22 0 16 -28 57 -39 57 -5 0 -1 -16 8
-35z"/>
<path d="M1814 69 c3 -17 6 -40 6 -50 0 -11 4 -19 8 -19 4 0 7 12 6 28 -1 15
-3 37 -3 50 -1 12 -6 22 -12 22 -8 0 -9 -11 -5 -31z"/>
<path d="M2930 75 c0 -32 6 -32 12 0 3 14 1 25 -3 25 -5 0 -9 -11 -9 -25z"/>
<path d="M4532 80 c0 -42 9 -80 18 -80 10 0 2 67 -11 90 -6 11 -8 8 -7 -10z"/>
<path d="M4140 41 c0 -23 5 -41 10 -41 6 0 10 15 10 34 0 19 -4 38 -10 41 -6
4 -10 -10 -10 -34z"/>
<path d="M5570 56 c0 -13 -3 -31 -6 -40 -4 -11 -1 -16 10 -16 12 0 15 9 14 40
-1 42 -18 57 -18 16z"/>
<path d="M4993 35 c1 -19 5 -35 10 -35 10 0 9 58 -2 65 -6 3 -9 -10 -8 -30z"/>
<path d="M3700 33 c0 -14 19 -38 25 -32 8 8 -5 39 -16 39 -5 0 -9 -3 -9 -7z"/>
</g>
</svg>
